<svg width="24" height="24" viewBox="-10 0 283.901 58.001" xmlns="http://www.w3.org/2000/svg"><path d="M0 45.9v-.8h8.2v.8q0 1.6 1.15 2.75t2.75 1.15h34.8q1.6 0 2.75-1.15t1.15-2.75V37q0-1.6-1.15-2.75T46.9 33.1H12.1q-3.3 0-6.05-1.65t-4.4-4.4T0 21v-8.9q0-3.3 1.65-6.05t4.4-4.4T12.1 0h34.8q3.4 0 6.15 1.65t4.4 4.4 1.65 6.05v.8h-8.3v-.8q0-1.6-1.15-2.75T46.9 8.2H12.1q-1.6 0-2.75 1.15T8.2 12.1V21q0 1.6 1.15 2.75t2.75 1.15h34.8q3.4 0 6.15 1.65t4.4 4.4T59.1 37v8.9q0 3.3-1.65 6.05t-4.4 4.4T46.9 58H12.1q-3.3 0-6.05-1.65t-4.4-4.4T0 45.9Zm136.2 0v-.8h8.2v.8q0 1.6 1.15 2.75t2.75 1.15h34.8q1.6 0 2.75-1.15T187 45.9V37q0-1.6-1.15-2.75t-2.75-1.15h-34.8q-3.3 0-6.05-1.65t-4.4-4.4T136.2 21v-8.9q0-3.3 1.65-6.05t4.4-4.4T148.3 0h34.8q3.4 0 6.15 1.65t4.4 4.4 1.65 6.05v.8H187v-.8q0-1.6-1.15-2.75T183.1 8.2h-34.8q-1.6 0-2.75 1.15t-1.15 2.75V21q0 1.6 1.15 2.75t2.75 1.15h34.8q3.4 0 6.15 1.65t4.4 4.4T195.3 37v8.9q0 3.3-1.65 6.05t-4.4 4.4T183.1 58h-34.8q-3.3 0-6.05-1.65t-4.4-4.4-1.65-6.05Zm68.6 0v-.8h8.2v.8q0 1.6 1.15 2.75t2.75 1.15h34.8q1.6 0 2.75-1.15t1.15-2.75V37q0-1.6-1.15-2.75t-2.75-1.15h-34.8q-3.3 0-6.05-1.65t-4.4-4.4T204.8 21v-8.9q0-3.3 1.65-6.05t4.4-4.4T216.9 0h34.8q3.4 0 6.15 1.65t4.4 4.4 1.65 6.05v.8h-8.3v-.8q0-1.6-1.15-2.75T251.7 8.2h-34.8q-1.6 0-2.75 1.15T213 12.1V21q0 1.6 1.15 2.75t2.75 1.15h34.8q3.4 0 6.15 1.65t4.4 4.4T263.9 37v8.9q0 3.3-1.65 6.05t-4.4 4.4T251.7 58h-34.8q-3.3 0-6.05-1.65t-4.4-4.4-1.65-6.05ZM67 45.9V12.1q0-3.3 1.65-6.05t4.4-4.4T79.1 0h46.8v8.2H79.1q-1.6 0-2.75 1.15T75.2 12.1v33.8q0 1.6 1.15 2.75t2.75 1.15h47V58h-47q-3.3 0-6.05-1.65t-4.4-4.4T67 45.9Z" vector-effect="non-scaling-stroke" font-size="12" stroke="#000" stroke-width="0.75" style="fill:#000"/></svg>
