<?xml version="1.0" encoding="UTF-8" standalone="no"?>
<!-- Created with Inkscape (http://www.inkscape.org/) -->

<svg
   version="1.1"
   id="svg1"
   width="512"
   height="512"
   viewBox="0 0 512 512"
   sodipodi:docname="ChatGPT Image 3 juil. 2025, 20_19_06.svg"
   inkscape:version="1.4.2 (f4327f4, 2025-05-13)"
   xmlns:inkscape="http://www.inkscape.org/namespaces/inkscape"
   xmlns:sodipodi="http://sodipodi.sourceforge.net/DTD/sodipodi-0.dtd"
   xmlns="http://www.w3.org/2000/svg"
   xmlns:svg="http://www.w3.org/2000/svg">
  <defs
     id="defs1" />
  <sodipodi:namedview
     id="namedview1"
     pagecolor="#ffffff"
     bordercolor="#000000"
     borderopacity="0.25"
     inkscape:showpageshadow="2"
     inkscape:pageopacity="0.0"
     inkscape:pagecheckerboard="0"
     inkscape:deskcolor="#d1d1d1"
     inkscape:zoom="1.1145218"
     inkscape:cx="113.95021"
     inkscape:cy="109.91261"
     inkscape:window-width="1920"
     inkscape:window-height="1009"
     inkscape:window-x="-8"
     inkscape:window-y="-8"
     inkscape:window-maximized="1"
     inkscape:current-layer="g1" />
  <g
     inkscape:groupmode="layer"
     inkscape:label="Image"
     id="g1">
    <g
       id="g4"
       transform="translate(3.6016235,-1.4743576)">
      <rect
         style="fill:#83c896;fill-opacity:0;stroke:#00c864;stroke-width:22.6011;stroke-linecap:round;stroke-linejoin:round;stroke-dasharray:none;stroke-opacity:1"
         id="rect1"
         width="317.39883"
         height="317.3989"
         x="93.698959"
         y="98.77491"
         rx="61.370525" />
      <circle
         style="vector-effect:non-scaling-stroke;fill:#00c864;fill-opacity:1;stroke:#00c864;stroke-width:1.68125;stroke-linecap:round;stroke-linejoin:round;stroke-dasharray:none;stroke-dashoffset:0;stroke-opacity:1;-inkscape-stroke:hairline"
         id="path2"
         cx="161.05205"
         cy="172.44733"
         r="16" />
      <circle
         style="vector-effect:non-scaling-stroke;fill:#00c864;fill-opacity:1;stroke:#00c864;stroke-width:1.68125;stroke-linecap:round;stroke-linejoin:round;stroke-dasharray:none;stroke-dashoffset:0;stroke-opacity:1;-inkscape-stroke:hairline"
         id="circle2"
         cx="213.0923"
         cy="172.89594"
         r="16" />
      <circle
         style="vector-effect:non-scaling-stroke;fill:#00c864;fill-opacity:1;stroke:#00c864;stroke-width:1.68125;stroke-linecap:round;stroke-linejoin:round;stroke-dasharray:none;stroke-dashoffset:0;stroke-opacity:1;-inkscape-stroke:hairline"
         id="circle3"
         cx="264.68396"
         cy="172.44733"
         r="16" />
      <path
         d="m 275.05204,214.08211 a 27,27 0 0 0 -25.59961,18.41992 h -94.20312 c -5.54,0 -10,3.791 -10,8.5 0,4.709 4.46,8.5 10,8.5 h 94.14843 a 27,27 0 0 0 25.6543,18.58008 27,27 0 0 0 25.6543,-18.58008 h 52.54297 c 5.54,0 10,-3.791 10,-8.5 0,-4.709 -4.46,-8.5 -10,-8.5 h -52.59766 a 27,27 0 0 0 -25.59961,-18.41992 z m 0.56055,15.92187 a 12,12 0 0 1 7.32617,2.49805 12,12 0 0 1 4.67383,9.50195 12,12 0 0 1 -2.63086,7.49805 12,12 0 0 1 -9.36914,4.50195 12,12 0 0 1 -9.3711,-4.50195 12,12 0 0 1 -2.6289,-7.49805 12,12 0 0 1 4.67187,-9.50195 12,12 0 0 1 7.32813,-2.49805 z"
         style="vector-effect:non-scaling-stroke;fill:#00c864;stroke:#00c864;stroke-linecap:round;stroke-linejoin:round;-inkscape-stroke:hairline"
         id="path4" />
      <rect
         style="fill:#00c864;fill-opacity:0;stroke:#00c864;stroke-width:14.7976;stroke-linecap:round;stroke-linejoin:round;stroke-dasharray:none;stroke-dashoffset:0;stroke-opacity:1"
         id="rect4"
         width="201.20239"
         height="65.202415"
         x="154.45088"
         y="302.84613"
         rx="0"
         ry="0" />
    </g>
  </g>
</svg>
