<svg xmlns="http://www.w3.org/2000/svg" viewBox="0 0 310 310" transform="rotate(180)"><path d="M166.85 259.13c14.43 7.62 33.37 3.91 41.74-10.94 29.49-52.35 54.97-106.79 76.94-162.71 5.85-14.89-6.41-34.13-21.31-37.53-17.54-4-31.27 5.36-37.53 21.31-20.08 51.11-43.84 100.3-70.79 148.14-7.83 13.89-3.78 33.95 10.95 41.73m-129 0c14.43 7.62 33.37 3.91 41.74-10.94 29.49-52.35 54.97-106.79 76.94-162.71 5.85-14.89-6.41-34.13-21.31-37.53-17.54-4-31.27 5.36-37.53 21.31-20.08 51.11-43.84 100.3-70.79 148.14-7.83 13.89-3.78 33.95 10.95 41.73"/></svg>